<?xml version="1.0" encoding="utf-8"?>
<!-- Generator: Adobe Illustrator 24.3.0, SVG Export Plug-In . SVG Version: 6.00 Build 0)  -->
<svg version="1.1" id="Ebene_1" xmlns="http://www.w3.org/2000/svg" xmlns:xlink="http://www.w3.org/1999/xlink" x="0px" y="0px"
	 width="646px" height="158.7px" viewBox="0 0 646 158.7" style="enable-background:new 0 0 646 158.7;" xml:space="preserve">
<style type="text/css">
	.st0{fill:#002D5C;}
	.st1{fill:#E3000B;}
</style>
<g>
	<g>
		<g>
			<path class="st0" d="M59.6,55.1H27.1v36.7H10V10h17.1v31h32.5V10h17.1v81.8H59.6V55.1z"/>
		</g>
		<g>
			<path class="st0" d="M157.3,10v53.2c0,10.5-3.1,18.2-9,23.5c-6.8,6-13.9,6.7-24.6,6.7c-4.8,0-9.1,0-13-1.2
				c-5.3-1.7-9.6-4.4-13-8.1c-4.3-4.8-6.4-11.4-6.4-19.8V10h17.4v53.1c0,5.4,0.2,9.5,2.9,12.3c2.7,2.8,7.4,4.7,11.7,4.7
				c5.7,0,11-1.9,13.7-4.6c2.7-2.7,2.8-6.5,2.8-11.6V10H157.3z"/>
		</g>
		<g>
			<path class="st0" d="M251.2,10v81.8h-15.9v-66l-15.5,66H203l-14.9-66l0,66h-16.2V10h24.9l14.8,64.6L226.5,10H251.2z"/>
		</g>
		<g>
			<path class="st0" d="M344.8,10v81.8h-16v-66l-15.5,66h-16.7l-14.9-66l0,66h-16.2V10h24.9l14.8,64.6L320.1,10H344.8z"/>
		</g>
	</g>
	<g>
		<g>
			<path class="st0" d="M459.5,10v67.6H499v14.2h-56.6V10H459.5z"/>
		</g>
	</g>
	<g>
		<polygon class="st1" points="359.4,73.2 359.4,91.9 410.4,91.9 415.1,73.2 		"/>
		<polygon class="st1" points="359.4,40.4 359.4,61.4 418,61.4 423.5,40.4 		"/>
		<polygon class="st1" points="359.4,10 359.4,28.7 426.4,28.7 431.2,10 		"/>
	</g>
</g>
<g>
	<path class="st0" d="M253.8,140.4h7.8L260,148h-7.8L253.8,140.4z"/>
	<path class="st0" d="M267.5,140.4h7.8l-1.6,7.6h-7.8L267.5,140.4z"/>
	<path class="st0" d="M281.2,140.4h7.8l-1.6,7.6h-7.8L281.2,140.4z"/>
	<path class="st0" d="M314.8,137c0,0.6,0,1.1,0,1.5c0,3,1.8,5,5.6,5c2.8,0,4.2-1.9,5.2-3.5h7c-2.2,5.7-5.9,8.8-13.2,8.8
		c-6.8,0-11.3-3.9-11.3-11.1c0-8.1,5.4-15.7,14-15.7c7.1,0,11.9,3.7,11.9,11.1c0,1.4-0.1,2.8-0.4,4H314.8z M327.2,132.5
		c0-2.6-0.6-5.4-4.7-5.4c-3.9,0-5.9,2.6-6.9,5.4H327.2z"/>
	<path class="st0" d="M340.7,122.5h7l-5.4,25.5h-7L340.7,122.5z M348.5,118.6h-7l1.3-5.8h7L348.5,118.6z"/>
	<path class="st0" d="M353.3,122.5h6.7l-0.8,3.5h0.1c2.3-2.8,5.3-4.2,8.9-4.2c4.8,0,7.4,2.4,7.4,6.8c0,1-0.5,3.5-0.7,4.4l-3.2,14.9
		h-7l3.1-14.9c0.2-0.7,0.4-2.4,0.4-3.1c0-1.5-1.7-2.6-3.4-2.6c-4.2,0-6.4,3.5-7.1,7.1L355,148h-7L353.3,122.5z"/>
	<path class="st0" d="M383.9,127.2h-4.1l1-4.7h4.2c1.4-6.5,2.6-10,9.9-10c1.5,0,3,0.2,4.6,0.4l-1.1,5c-0.7,0-1.5-0.1-2.3-0.1
		c-3.4,0-3.4,1.8-4.1,4.7h5l-1,4.7h-5l-4.4,20.8h-7L383.9,127.2z"/>
	<path class="st0" d="M398.9,130.3c0.9-6.4,6.3-8.4,12.1-8.4c4.5,0,10.7,1,10.6,6.7c0,1.1-0.2,2.7-0.5,4.3l-2.3,10.2
		c-0.2,0.9-0.3,2.5-0.3,3.4c0,0.4,0.1,1,0.2,1.5h-7v-2.5c-1.9,2.2-4.9,3.2-7.8,3.2c-5.6,0-8.3-3.2-8.3-6.7c0-4.9,3.7-7.9,9.8-8.7
		c6.6-0.8,9.7-0.4,9.7-3.7c0-2.5-2.7-3.1-4.4-3.1c-2.5,0-4.7,1.2-5.2,3.7H398.9z M413.7,135.8c-1.8,1-3.9,1.1-5.9,1.2
		c-2.7,0.3-5.2,0.9-5.2,4.1c0,1.9,1.8,2.9,3.8,2.9c4.3,0,5.8-3,6.6-5.8L413.7,135.8z"/>
	<path class="st0" d="M443.5,131.4c0-3-1.6-4.2-4.7-4.2c-5.3,0-7.1,6.4-7.1,10.8c0,3.1,1.3,5.5,4.8,5.5c3.1,0,4.9-2.2,5.7-4.7h7
		c-2.1,6.4-6.5,10-13.1,10c-7.1,0-11.3-3.5-11.3-10.9c0-8.7,5.2-15.9,14.4-15.9c6.2,0,11.3,2.8,11.4,9.5H443.5z"/>
	<path class="st0" d="M458.4,112.8h7l-2.6,12.7h0.1c1.1-1.5,3.8-3.6,8.4-3.6c4.8,0,7.4,2.4,7.4,6.8c0,1-0.5,3.5-0.7,4.4l-3.2,14.9
		h-7l3.1-14.9c0.2-0.7,0.4-2.4,0.4-3.1c0-1.5-1.7-2.6-3.3-2.6c-4.2,0-6.4,3.5-7.1,7.1L458,148h-7L458.4,112.8z"/>
	<path class="st0" d="M502.2,112.8h7l-4,19.1l0.1,0.1l10-9.5h8.6l-11.4,9.6L519,148h-7.7l-4.2-11.4l-3.6,3.1l-1.7,8.3h-7
		L502.2,112.8z"/>
	<path class="st0" d="M529.6,112.8h7l-7.5,35.1h-7L529.6,112.8z"/>
	<path class="st0" d="M540.3,122.5h7l-5.4,25.5h-7L540.3,122.5z M548.1,118.6h-7l1.3-5.8h7L548.1,118.6z"/>
	<path class="st0" d="M553,122.5h6.7l-0.8,3.6h0.1c2.1-2.9,5.3-4.3,8.9-4.3c3.1,0,5.6,1.4,6.2,4.4c1.7-2.6,5.4-4.4,8.6-4.4
		c4,0,7.7,2.1,7.7,6.5c0,1.6-0.4,3.2-0.7,4.7l-3.1,15h-7l3.3-16.1c0.1-0.7,0.2-1.3,0.2-1.8c0-1.5-1.3-2.7-3-2.7
		c-3.7,0-5.9,3.9-6.5,7l-2.9,13.6h-7l3.3-16.1c0.1-0.7,0.2-1.3,0.2-1.8c0-1.5-1.3-2.7-3.1-2.7c-3.7,0-5.9,3.9-6.5,7l-2.9,13.6h-7
		L553,122.5z"/>
	<path class="st0" d="M595.8,130.3c0.9-6.4,6.3-8.4,12.1-8.4c4.5,0,10.7,1,10.6,6.7c0,1.1-0.2,2.7-0.5,4.3l-2.3,10.2
		c-0.2,0.9-0.3,2.5-0.3,3.4c0,0.4,0.1,1,0.2,1.5h-7v-2.5c-1.9,2.2-4.9,3.2-7.8,3.2c-5.6,0-8.3-3.2-8.3-6.7c0-4.9,3.7-7.9,9.7-8.7
		c6.6-0.8,9.7-0.4,9.7-3.7c0-2.5-2.7-3.1-4.4-3.1c-2.5,0-4.7,1.2-5.2,3.7H595.8z M610.6,135.8c-1.8,1-3.9,1.1-5.9,1.2
		c-2.7,0.3-5.2,0.9-5.2,4.1c0,1.9,1.8,2.9,3.8,2.9c4.3,0,5.8-3,6.5-5.8L610.6,135.8z"/>
	<path class="st0" d="M622.6,140.4h7.8l-1.6,7.6h-7.8L622.6,140.4z M633.9,122.4l-5.2,15.1h-3.4l1.2-15.1l2-9.6h7.4L633.9,122.4z"/>
</g>
</svg>
